<svg width="160" height="25" viewBox="0 0 160 25" fill="none" xmlns="http://www.w3.org/2000/svg">
<path d="M7.66797 24.7383C6.87109 24.7383 6.07422 24.5977 5.27734 24.3164C4.50391 24.0352 3.75391 23.625 3.02734 23.0859C2.30078 22.5234 1.66797 21.7852 1.12891 20.8711C0.589844 19.957 0.296875 18.8672 0.25 17.6016V4.91016C0.25 4.25391 0.484375 3.71484 0.953125 3.29297C1.44531 2.84766 2.01953 2.625 2.67578 2.625C4.08203 2.74219 4.84375 3.50391 4.96094 4.91016V17.3203C4.98438 17.8828 5.10156 18.3633 5.3125 18.7617C5.52344 19.1367 5.75781 19.4414 6.01562 19.6758C6.27344 19.8867 6.53125 20.0508 6.78906 20.168C7.07031 20.2617 7.35156 20.3086 7.63281 20.3086C7.91406 20.3086 8.19531 20.2617 8.47656 20.168C8.75781 20.0508 9.02734 19.8867 9.28516 19.6758C9.54297 19.4414 9.77734 19.1367 9.98828 18.7617C10.1992 18.3633 10.3047 17.8828 10.3047 17.3203V4.91016C10.3047 4.25391 10.5391 3.71484 11.0078 3.29297C11.5 2.84766 12.0742 2.625 12.7305 2.625C14.1367 2.74219 14.9102 3.50391 15.0508 4.91016V17.3203C15.0742 17.8828 15.1914 18.3516 15.4023 18.7266C15.6133 19.125 15.8477 19.4414 16.1055 19.6758C16.3633 19.8867 16.6211 20.0508 16.8789 20.168C17.1602 20.2617 17.4414 20.3086 17.7227 20.3086C18.0039 20.3086 18.2852 20.2617 18.5664 20.168C18.8477 20.0508 19.1172 19.8867 19.375 19.6758C19.6328 19.4414 19.8672 19.1367 20.0781 18.7617C20.2891 18.3633 20.3945 17.8828 20.3945 17.3203V4.91016C20.3945 4.25391 20.6289 3.71484 21.0977 3.29297C21.5898 2.84766 22.1641 2.625 22.8203 2.625C24.2266 2.74219 25 3.50391 25.1406 4.91016V17.6016C25.1406 18.8672 24.8594 19.957 24.2969 20.8711C23.7578 21.7852 23.125 22.5234 22.3984 23.0859C21.6953 23.625 20.9453 24.0352 20.1484 24.3164C19.375 24.5977 18.5781 24.7383 17.7578 24.7383C16.9609 24.7383 16.1641 24.5977 15.3672 24.3164C14.5938 24.0352 13.8438 23.6133 13.1172 23.0508C12.9766 22.957 12.8477 22.8516 12.7305 22.7344C12.5898 22.8516 12.4609 22.957 12.3438 23.0508C11.6172 23.6133 10.8555 24.0352 10.0586 24.3164C9.28516 24.5977 8.48828 24.7383 7.66797 24.7383ZM33.3672 24.4922C32.4297 24.4922 31.6445 24.1641 31.0117 23.5078C30.4023 22.8516 30.0977 22.0312 30.0977 21.0469C30.0977 20.0625 30.4023 19.2422 31.0117 18.5859C31.6445 17.9297 32.4297 17.6016 33.3672 17.6016C34.3047 17.6016 35.0898 17.9297 35.7227 18.5859C36.3555 19.2422 36.6719 20.0625 36.6719 21.0469C36.6719 22.0312 36.3555 22.8516 35.7227 23.5078C35.0898 24.1641 34.3047 24.4922 33.3672 24.4922ZM46.1641 22.0664C46.0234 23.4727 45.25 24.2344 43.8438 24.3516C43.1875 24.3516 42.6133 24.1406 42.1211 23.7188C41.6523 23.2734 41.418 22.7227 41.418 22.0664V5.47266C41.4414 4.81641 41.6875 4.27734 42.1562 3.85547C42.625 3.41016 43.1875 3.1875 43.8438 3.1875H58.6094C60.6719 3.25781 62.2305 3.71484 63.2852 4.55859C64.3398 5.37891 65.1016 6.31641 65.5703 7.37109C66.0391 8.42578 66.2734 9.49219 66.2734 10.5703C66.2734 11.6953 66.0391 12.7852 65.5703 13.8398C65.125 14.8945 64.3633 15.8438 63.2852 16.6875C62.2305 17.5078 60.8828 17.9062 59.2422 17.8828H50.3828C49.7266 17.8828 49.1758 17.6484 48.7305 17.1797C48.2617 16.7344 48.0273 16.1836 48.0273 15.5273C48.0273 14.8711 48.25 14.3203 48.6953 13.875C49.1641 13.4062 49.7266 13.1719 50.3828 13.1719H59.4531C59.8984 13.1719 60.2617 13.0312 60.543 12.75C60.8477 12.4453 61.0703 12.1055 61.2109 11.7305C61.3516 11.332 61.4219 10.9336 61.4219 10.5352C61.4219 10.1602 61.3516 9.78516 61.2109 9.41016C61.0703 9.01172 60.8477 8.67188 60.543 8.39062C60.2617 8.08594 59.8984 7.92188 59.4531 7.89844H47.0781C46.4688 7.92188 46.1641 8.22656 46.1641 8.8125V22.0664ZM77.2773 23.9297C75.2148 23.8594 73.6562 23.3789 72.6016 22.4883C71.5469 21.5742 70.7852 20.5547 70.3164 19.4297C69.8477 18.2812 69.6133 17.1211 69.6133 15.9492C69.6133 14.7305 69.8359 13.5586 70.2812 12.4336C70.75 11.2852 71.5117 10.2656 72.5664 9.375C73.6445 8.46094 75.0039 7.99219 76.6445 7.96875H88.0352C89.6758 7.99219 91.0234 8.46094 92.0781 9.375C93.1562 10.2656 93.918 11.2852 94.3633 12.4336C94.832 13.5586 95.0664 14.7305 95.0664 15.9492C95.0664 17.1211 94.832 18.2812 94.3633 19.4297C93.8945 20.5547 93.1328 21.5742 92.0781 22.4883C91.0234 23.3789 89.4648 23.8594 87.4023 23.9297H77.2773ZM76.5039 12.6797C76.0586 12.6797 75.6719 12.8672 75.3438 13.2422C75.0156 13.5938 74.7695 14.0156 74.6055 14.5078C74.4648 14.9766 74.3945 15.4453 74.3945 15.9141C74.3945 16.4062 74.4648 16.8984 74.6055 17.3906C74.7695 17.8594 75.0156 18.2812 75.3438 18.6562C75.6719 19.0078 76.0586 19.1953 76.5039 19.2188H88.1758C88.6211 19.1953 89.0078 19.0078 89.3359 18.6562C89.6641 18.2812 89.8984 17.8594 90.0391 17.3906C90.2031 16.8984 90.2852 16.4062 90.2852 15.9141C90.2852 15.4453 90.2031 14.9766 90.0391 14.5078C89.8984 14.0156 89.6641 13.5938 89.3359 13.2422C89.0078 12.8672 88.6211 12.6797 88.1758 12.6797H76.5039ZM101.535 7.61719C102.168 7.64062 102.707 7.875 103.152 8.32031C103.598 8.74219 103.832 9.26953 103.855 9.90234V22.0664C103.715 23.4727 102.941 24.2344 101.535 24.3516C100.879 24.3516 100.305 24.1406 99.8125 23.7188C99.3438 23.2734 99.1094 22.7227 99.1094 22.0664V9.90234C99.1328 9.24609 99.3789 8.70703 99.8477 8.28516C100.316 7.83984 100.879 7.61719 101.535 7.61719ZM98.582 3.04688C98.582 2.39063 98.8633 1.82813 99.4258 1.35938C99.9883 0.890625 100.668 0.65625 101.465 0.65625C102.262 0.65625 102.941 0.890625 103.504 1.35938C104.066 1.82813 104.348 2.39063 104.348 3.04688C104.348 3.72656 104.066 4.30078 103.504 4.76953C102.941 5.23828 102.262 5.47266 101.465 5.47266C100.668 5.47266 99.9883 5.23828 99.4258 4.76953C98.8633 4.30078 98.582 3.72656 98.582 3.04688ZM119.359 7.44141C120.578 7.44141 121.773 7.58203 122.945 7.86328C124.141 8.14453 125.277 8.56641 126.355 9.12891C127.434 9.66797 128.383 10.3945 129.203 11.3086C130.047 12.2227 130.504 13.3125 130.574 14.5781V16.0547V22.0664C130.434 23.4727 129.66 24.2344 128.254 24.3516C127.598 24.3516 127.023 24.1406 126.531 23.7188C126.062 23.2734 125.828 22.7227 125.828 22.0664V20.5195V15.668C125.781 14.9414 125.5 14.3438 124.984 13.875C124.492 13.3828 123.93 12.9961 123.297 12.7148C122.688 12.4336 122.043 12.2227 121.363 12.082C120.707 11.9414 120.039 11.8711 119.359 11.8711C118.68 11.8711 118 11.9414 117.32 12.082C116.664 12.2227 116.02 12.4336 115.387 12.7148C114.777 12.9961 114.215 13.3828 113.699 13.875C113.207 14.3438 112.938 14.9414 112.891 15.668V20.5195V22.0664C112.773 23.4727 112.012 24.2344 110.605 24.3516C109.949 24.3516 109.375 24.1406 108.883 23.7188C108.414 23.2734 108.18 22.7227 108.18 22.0664V16.0547V14.5781C108.25 13.3125 108.695 12.2227 109.516 11.3086C110.336 10.3945 111.285 9.66797 112.363 9.12891C113.441 8.56641 114.566 8.14453 115.738 7.86328C116.934 7.58203 118.141 7.44141 119.359 7.44141ZM142.668 2.625C143.324 2.625 143.887 2.84766 144.355 3.29297C144.824 3.71484 145.07 4.25391 145.094 4.91016V7.96875H157.047C157.703 7.96875 158.266 8.19141 158.734 8.63672C159.18 9.10547 159.402 9.66797 159.402 10.3242C159.402 10.9805 159.168 11.543 158.699 12.0117C158.254 12.457 157.703 12.6797 157.047 12.6797H145.094V13.3828C145.07 14.3438 145.129 15.2344 145.27 16.0547C145.434 16.8516 145.809 17.5664 146.395 18.1992C146.98 18.832 147.719 19.1719 148.609 19.2188H157.188C157.844 19.2422 158.383 19.4883 158.805 19.957C159.25 20.4258 159.473 20.9883 159.473 21.6445C159.449 22.2773 159.215 22.8164 158.77 23.2617C158.348 23.6836 157.82 23.9062 157.188 23.9297H147.414C145.773 23.8359 144.414 23.2852 143.336 22.2773C142.281 21.2461 141.52 19.9922 141.051 18.5156C140.605 17.0391 140.371 15.4688 140.348 13.8047V12.6797H136.305C135.648 12.6797 135.098 12.4453 134.652 11.9766C134.184 11.5312 133.949 10.9805 133.949 10.3242C133.949 9.66797 134.172 9.11719 134.617 8.67188C135.086 8.20312 135.648 7.96875 136.305 7.96875H140.348V4.91016C140.371 4.27734 140.605 3.75 141.051 3.32812C141.496 2.88281 142.035 2.64844 142.668 2.625Z" fill="#412C86"/>
</svg>
