<svg width="751" height="702" viewBox="0 0 751 702" fill="none" xmlns="http://www.w3.org/2000/svg">
<path d="M30.5934 16.05H28.9768V13.3166C29.5233 12.5039 29.8136 11.546 29.8101 10.5666C29.8129 10.4386 29.8073 10.3106 29.7934 10.1833C29.7237 9.34108 29.4346 8.5318 28.9551 7.83591C28.4756 7.14001 27.8223 6.58176 27.0601 6.21664C26.4386 5.91844 25.7615 5.75398 25.0725 5.73389C24.3835 5.71379 23.6979 5.83851 23.0601 6.09997C22.5745 5.29163 21.888 4.62273 21.0673 4.15834C20.2467 3.69396 19.3197 3.44989 18.3768 3.44989C17.4338 3.44989 16.5069 3.69396 15.6862 4.15834C14.8655 4.62273 14.179 5.29163 13.6934 6.09997C12.8089 5.72988 11.8342 5.63125 10.8934 5.81664C10.0952 5.95742 9.34593 6.29901 8.71614 6.80926C8.08634 7.31951 7.59675 7.98164 7.29345 8.7333C6.98969 9.4844 6.87639 10.299 6.96362 11.1044C7.05086 11.9099 7.33593 12.6813 7.79345 13.35V32.3833C7.79345 33.4884 8.23243 34.5482 9.01384 35.3296C9.79524 36.111 10.855 36.55 11.9601 36.55H24.8101C25.3573 36.55 25.8991 36.4422 26.4046 36.2328C26.9102 36.0234 27.3695 35.7165 27.7564 35.3296C28.1433 34.9427 28.4502 34.4833 28.6596 33.9778C28.869 33.4723 28.9768 32.9305 28.9768 32.3833V30.7333L30.4934 30.1333C31.2521 29.834 31.9029 29.3128 32.3608 28.6378C32.8187 27.9629 33.0624 27.1656 33.0601 26.35V18.5C33.0553 17.8488 32.7933 17.2259 32.3313 16.767C31.8693 16.3081 31.2446 16.0504 30.5934 16.05ZM27.3101 32.3833C27.3101 33.0463 27.0467 33.6822 26.5779 34.1511C26.109 34.6199 25.4732 34.8833 24.8101 34.8833H11.9601C11.2971 34.8833 10.6612 34.6199 10.1923 34.1511C9.72351 33.6822 9.46011 33.0463 9.46011 32.3833V18.9C10.3409 19.698 11.4882 20.1379 12.6768 20.1333C12.8934 20.1333 13.0934 20.1166 13.2934 20.1V30.6666C13.2934 30.8877 13.3812 31.0996 13.5375 31.2559C13.6938 31.4122 13.9058 31.5 14.1268 31.5C14.3478 31.5 14.5598 31.4122 14.716 31.2559C14.8723 31.0996 14.9601 30.8877 14.9601 30.6666V19.7C14.9628 19.6603 14.9571 19.6206 14.9434 19.5833C15.6989 19.1869 16.3377 18.6001 16.7966 17.881C17.2556 17.1619 17.5188 16.3354 17.5601 15.4833H24.9268C25.763 15.4849 26.585 15.2665 27.3101 14.85V32.3833ZM27.2934 12.7666C26.992 13.0946 26.6264 13.357 26.2192 13.5376C25.8121 13.7183 25.3722 13.8132 24.9268 13.8166H17.2434C16.9412 13.8118 16.6464 13.9097 16.4071 14.0945C16.1679 14.2792 15.9985 14.5397 15.9268 14.8333C15.9066 14.9433 15.8955 15.0548 15.8934 15.1666C15.9042 15.7745 15.7463 16.3735 15.4374 16.8971C15.1285 17.4208 14.6807 17.8487 14.1434 18.1333C13.6532 18.3788 13.1084 18.4952 12.5606 18.4715C12.0128 18.4478 11.4801 18.2847 11.0129 17.9977C10.5457 17.7107 10.1595 17.3093 9.89066 16.8314C9.62186 16.3535 9.47941 15.8149 9.47678 15.2666C9.47565 14.8232 9.5724 14.385 9.76011 13.9833C9.84551 13.7952 9.87053 13.5852 9.83173 13.3822C9.79293 13.1793 9.69222 12.9933 9.54345 12.85C9.09541 12.3965 8.79148 11.8207 8.66989 11.195C8.54831 10.5692 8.61449 9.92152 8.86011 9.3333C9.05905 8.84834 9.37721 8.42145 9.78511 8.09222C10.193 7.76299 10.6774 7.54208 11.1934 7.44997C11.403 7.41741 11.6147 7.40069 11.8268 7.39997C12.324 7.39755 12.8149 7.51171 13.2601 7.7333C13.4091 7.81449 13.5729 7.86516 13.7417 7.88233C13.9106 7.8995 14.0811 7.88283 14.2434 7.8333C14.5674 7.72672 14.8382 7.50008 15.0001 7.19997C15.3158 6.57335 15.7992 6.04671 16.3966 5.67873C16.994 5.31075 17.6818 5.1159 18.3834 5.1159C19.0851 5.1159 19.7729 5.31075 20.3703 5.67873C20.9677 6.04671 21.4511 6.57335 21.7668 7.19997C21.8408 7.34898 21.9438 7.48173 22.0697 7.59048C22.1956 7.69922 22.3419 7.78177 22.5001 7.8333C22.8265 7.93231 23.1784 7.90249 23.4834 7.74997C23.95 7.50891 24.4688 7.38657 24.9939 7.39378C25.519 7.40099 26.0342 7.53753 26.494 7.7913C26.9538 8.04508 27.3439 8.40828 27.6298 8.84875C27.9158 9.28922 28.0888 9.79339 28.1334 10.3166C28.1755 10.7612 28.1224 11.2097 27.9775 11.6322C27.8327 12.0546 27.5995 12.4414 27.2934 12.7666ZM31.3934 26.35C31.3953 26.834 31.2495 27.3071 30.9755 27.7061C30.7016 28.1051 30.3125 28.4111 29.8601 28.5833L28.9934 28.95V17.7166H30.5934C30.803 17.7157 31.0045 17.7974 31.1543 17.9441C31.304 18.0907 31.3899 18.2904 31.3934 18.5V26.35Z" fill="black"/>
<path d="M22.6283 31.5C22.4072 31.5 22.1953 31.4122 22.039 31.2559C21.8827 31.0996 21.7949 30.8877 21.7949 30.6666V19.7C21.7949 19.479 21.8827 19.267 22.039 19.1107C22.1953 18.9544 22.4072 18.8666 22.6283 18.8666C22.8493 18.8666 23.0612 18.9544 23.2175 19.1107C23.3738 19.267 23.4616 19.479 23.4616 19.7V30.6666C23.4616 30.8877 23.3738 31.0996 23.2175 31.2559C23.0612 31.4122 22.8493 31.5 22.6283 31.5Z" fill="black"/>
<path d="M61.1644 36.9607C60.5544 36.9607 59.956 36.7299 59.481 36.2868L52.396 29.7094C52.0777 29.4112 51.5827 29.4129 51.2627 29.7077L44.1777 36.2868C43.4377 36.9776 42.406 37.1545 41.481 36.7434C40.5577 36.334 39.9844 35.4478 39.9844 34.4285V7.68596C39.9844 5.36432 41.8527 3.474 44.151 3.474H59.5094C61.8077 3.474 63.676 5.36432 63.676 7.68596V34.4268C63.676 35.4461 63.101 36.3323 62.1794 36.7417C61.8477 36.8883 61.5044 36.9607 61.1644 36.9607ZM51.8277 27.8023C52.4377 27.8023 53.0477 28.0247 53.5244 28.4694L60.6094 35.0468C60.9844 35.3939 61.3944 35.2507 61.5094 35.1985C61.626 35.1462 62.0094 34.9373 62.0094 34.4268V7.68596C62.0094 6.29264 60.8877 5.15878 59.5094 5.15878H44.151C42.7727 5.15878 41.651 6.29264 41.651 7.68596V34.4268C41.651 34.9373 42.0327 35.1462 42.151 35.1985C42.266 35.2507 42.6777 35.3939 43.051 35.0468L50.136 28.4677C50.6094 28.0247 51.2194 27.8023 51.8277 27.8023Z" fill="black"/>
<g clip-path="url(#clip0_65_49)">
<path d="M92.177 8.16883H88.947C88.947 7.5983 88.947 7.02941 88.947 6.46053C88.947 6.25606 88.947 6.05159 88.947 5.84713C88.947 5.4151 88.5636 5.00287 88.1136 5.02266C87.662 5.04244 87.2803 5.38542 87.2803 5.84713C87.2803 6.62048 87.2803 7.39548 87.2803 8.16883H75.6136C75.6136 7.5983 75.6136 7.02941 75.6136 6.46053C75.6136 6.25606 75.6136 6.05159 75.6136 5.84713C75.6136 5.4151 75.2303 5.00287 74.7803 5.02266C74.3286 5.04244 73.947 5.38542 73.947 5.84713C73.947 6.62048 73.947 7.39548 73.947 8.16883H70.717C68.4203 8.16883 66.5503 10.0189 66.5503 12.2912V30.4295C66.5503 32.7034 68.4203 34.5518 70.717 34.5518H92.1753C94.4736 34.5518 96.342 32.7034 96.342 30.4295V12.2912C96.3436 10.0189 94.4736 8.16883 92.177 8.16883ZM70.717 9.81776H73.947C73.947 9.93814 73.947 10.0602 73.947 10.1805C73.947 10.385 73.947 10.5895 73.947 10.7939C73.947 11.226 74.3303 11.6382 74.7803 11.6184C75.232 11.5986 75.6136 11.2556 75.6136 10.7939C75.6136 10.4691 75.6136 10.1443 75.6136 9.81776H87.2803C87.2803 9.93814 87.2803 10.0602 87.2803 10.1805C87.2803 10.385 87.2803 10.5895 87.2803 10.7939C87.2803 11.226 87.6636 11.6382 88.1136 11.6184C88.5653 11.5986 88.947 11.2556 88.947 10.7939C88.947 10.4691 88.947 10.1443 88.947 9.81776H92.1753C93.5536 9.81776 94.6753 10.9275 94.6753 12.2912V14.9031H68.217V12.2912C68.217 10.9275 69.3386 9.81776 70.717 9.81776ZM92.177 32.9029H70.717C69.3386 32.9029 68.217 31.7931 68.217 30.4295V16.552H94.6753V30.4295C94.677 31.7931 93.5553 32.9029 92.177 32.9029Z" fill="black"/>
</g>
<path d="M102.951 33.23C102.682 33.23 102.412 33.1783 102.154 33.0716C101.374 32.75 100.867 31.9966 100.866 31.1516L100.857 28.29L100.871 10.9333C100.872 8.63829 102.742 6.76996 105.037 6.76996H129.824C132.121 6.76996 133.991 8.63996 133.991 10.9366V24.9533C133.991 27.25 132.121 29.12 129.824 29.12H108.954C108.286 29.12 107.659 29.38 107.186 29.8516L104.421 32.6166C104.022 33.0183 103.492 33.23 102.951 33.23ZM105.037 8.43663C103.661 8.43663 102.537 9.55663 102.537 10.935L102.524 28.2883L102.532 31.145C102.532 31.3966 102.712 31.4966 102.791 31.5283C102.869 31.5616 103.067 31.615 103.244 31.4383L106.009 28.6733C106.796 27.8866 107.842 27.4533 108.956 27.4533H129.824C131.202 27.4533 132.324 26.3316 132.324 24.9533V10.9366C132.324 9.55829 131.202 8.43663 129.824 8.43663H105.037Z" fill="black"/>
<path d="M19.6416 70.8313C19.2233 70.8313 18.8033 70.6731 18.4833 70.3565L7.35828 59.3495C5.36161 57.3743 4.42828 54.545 4.86328 51.7801C5.30661 48.9657 7.07994 46.5767 9.72994 45.2247C12.9366 43.5858 16.8716 44.1596 19.6416 46.6377C22.4116 44.1629 26.3449 43.5858 29.5533 45.2247C32.2033 46.5767 33.9766 48.9657 34.4199 51.7801C34.8549 54.545 33.9233 57.3743 31.9249 59.3495L20.7983 70.3565C20.4816 70.6731 20.0616 70.8313 19.6416 70.8313ZM13.5683 45.9683C12.5049 45.9683 11.4499 46.204 10.4949 46.6921C8.32494 47.8 6.87328 49.7488 6.51161 52.0356C6.15828 54.2812 6.91494 56.5796 8.53661 58.1838L19.6616 69.1908L30.7466 58.1838C32.3683 56.5796 33.1266 54.2796 32.7716 52.0356C32.4116 49.7472 30.9599 47.8 28.7883 46.6921C26.1416 45.3417 22.7383 45.9188 20.5083 48.0968C20.0299 48.565 19.2499 48.565 18.7716 48.0968C17.3499 46.7053 15.4483 45.9683 13.5683 45.9683Z" fill="black"/>
<path d="M60.8962 40.6765H42.7629C41.6587 40.6796 40.6007 41.1196 39.82 41.9003C39.0392 42.681 38.5993 43.7391 38.5962 44.8432V69.6265C38.5993 70.7306 39.0392 71.7887 39.82 72.5694C40.6007 73.3501 41.6587 73.7901 42.7629 73.7932H60.8962C62.0013 73.7932 63.0611 73.3542 63.8425 72.5728C64.6239 71.7914 65.0629 70.7316 65.0629 69.6265V44.8432C65.0629 44.296 64.9551 43.7542 64.7457 43.2487C64.5363 42.7431 64.2294 42.2838 63.8425 41.8969C63.4556 41.51 62.9962 41.2031 62.4907 40.9937C61.9852 40.7843 61.4434 40.6765 60.8962 40.6765ZM63.3962 69.6265C63.3962 70.2896 63.1328 70.9254 62.664 71.3943C62.1951 71.8631 61.5592 72.1265 60.8962 72.1265H42.7629C42.0998 72.1265 41.4639 71.8631 40.9951 71.3943C40.5263 70.9254 40.2629 70.2896 40.2629 69.6265V48.0765H63.3962V69.6265Z" fill="black"/>
<path d="M44.411 53.0782C44.19 53.0782 43.978 52.9904 43.8217 52.8341C43.6654 52.6778 43.5776 52.4658 43.5776 52.2448C43.5776 52.0238 43.6654 51.8119 43.8217 51.6556C43.978 51.4993 44.19 51.4115 44.411 51.4115H59.2593C59.4803 51.4115 59.6923 51.4993 59.8486 51.6556C60.0048 51.8119 60.0926 52.0238 60.0926 52.2448C60.0926 52.4658 60.0048 52.6778 59.8486 52.8341C59.6923 52.9904 59.4803 53.0782 59.2593 53.0782H44.411Z" fill="black"/>
<path d="M44.411 58.0782C44.19 58.0782 43.978 57.9904 43.8217 57.8341C43.6654 57.6778 43.5776 57.4658 43.5776 57.2448C43.5776 57.0238 43.6654 56.8119 43.8217 56.6556C43.978 56.4993 44.19 56.4115 44.411 56.4115H55.2443C55.4653 56.4115 55.6773 56.4993 55.8336 56.6556C55.9898 56.8119 56.0776 57.0238 56.0776 57.2448C56.0776 57.4658 55.9898 57.6778 55.8336 57.8341C55.6773 57.9904 55.4653 58.0782 55.2443 58.0782H44.411Z" fill="black"/>
<path d="M44.4393 67.8582C44.2183 67.8582 44.0063 67.7704 43.85 67.6141C43.6938 67.4578 43.606 67.2459 43.606 67.0249C43.606 66.8038 43.6938 66.5919 43.85 66.4356C44.0063 66.2793 44.2183 66.1915 44.4393 66.1915H49.8576C50.0786 66.1915 50.2906 66.2793 50.4469 66.4356C50.6032 66.5919 50.691 66.8038 50.691 67.0249C50.691 67.2459 50.6032 67.4578 50.4469 67.6141C50.2906 67.7704 50.0786 67.8582 49.8576 67.8582H44.4393Z" fill="black"/>
<g clip-path="url(#clip1_65_49)">
<path d="M82.4451 71.3858H80.2768C79.6118 71.3858 79.0285 70.947 78.8568 70.3189L77.5668 65.6977L73.4051 68.0385C72.8301 68.3582 72.1051 68.2669 71.6385 67.8118L70.0968 66.3143C69.6251 65.8543 69.5268 65.1399 69.8585 64.5755L72.3051 60.4241L72.2968 60.4012L67.6518 59.1827C67.0118 59.0147 66.5635 58.4438 66.5635 57.7946V55.6691C66.5635 55.0215 67.0101 54.4506 67.6485 54.2809L72.3801 53.0135L69.9818 48.9322C69.6535 48.3694 69.7501 47.6566 70.2168 47.1999L71.7468 45.7024C72.2118 45.2457 72.9401 45.1478 73.5151 45.4708L77.7685 47.8589L77.7885 47.8524L79.0318 43.2997C79.2018 42.6716 79.7851 42.2328 80.4501 42.2328H82.6201C83.2851 42.2328 83.8685 42.6716 84.0401 43.3013L85.3118 47.9307L89.4918 45.5801C90.0651 45.2587 90.7885 45.3533 91.2585 45.8068L92.8001 47.3043C93.2735 47.7643 93.3701 48.4804 93.0368 49.0448L90.5901 53.1831L90.6035 53.219L95.2468 54.4359C95.8885 54.6055 96.3351 55.1765 96.3351 55.8257V57.9495C96.3351 58.6004 95.8868 59.1713 95.2451 59.3393L90.5185 60.6019L92.9168 64.688C93.2468 65.2508 93.1501 65.9636 92.6801 66.422L91.1518 67.9178C90.6818 68.3762 89.9551 68.4692 89.3801 68.1478L85.1485 65.7646L85.1118 65.7793L83.8685 70.3222C83.6918 70.947 83.1085 71.3858 82.4451 71.3858ZM80.4268 69.7546H82.2935L83.5235 65.2606C83.6435 64.8234 83.9718 64.4629 84.4035 64.2949L84.6268 64.2101C85.0418 64.0486 85.5035 64.0828 85.8951 64.3031L90.0768 66.6585L91.3918 65.3715L89.0201 61.331C88.7935 60.946 88.7618 60.4697 88.9401 60.057L89.0268 59.8531C89.2018 59.4421 89.5568 59.1387 90.0001 59.0212L94.6651 57.7994V55.9725L90.0735 54.7687C89.6251 54.6512 89.2568 54.3282 89.0868 53.9058L89.0018 53.6921C88.8368 53.2826 88.8718 52.8275 89.0968 52.4475L91.5168 48.3564L90.1901 47.0661L86.0568 49.3906C85.6618 49.6124 85.1935 49.6434 84.7701 49.4754L84.5785 49.3987C84.1585 49.2324 83.8335 48.8735 83.7151 48.4396L82.4668 43.8641H80.6018L79.3718 48.3694C79.2485 48.8164 78.9135 49.1802 78.4735 49.3433L78.2735 49.4167C77.8635 49.5716 77.4051 49.5374 77.0218 49.3221L72.8185 46.9601L71.5018 48.2471L73.8718 52.286C74.1001 52.6758 74.1285 53.1538 73.9485 53.5665L73.8635 53.7622C73.6885 54.1651 73.3351 54.4653 72.8985 54.5811L68.2268 55.8175V57.6461L72.8218 58.8499C73.2685 58.9674 73.6351 59.2887 73.8068 59.7063L73.8868 59.9037C74.0568 60.3164 74.0235 60.7748 73.7951 61.1597L71.3768 65.2622L72.7035 66.5525L76.8201 64.2378C77.2235 64.0127 77.7118 63.9833 78.1318 64.1644L78.3085 64.2362C78.7351 64.396 79.0635 64.7565 79.1835 65.1986L80.4268 69.7546ZM77.6985 65.7516C77.7018 65.7532 77.7068 65.7548 77.7118 65.7565L77.6985 65.7516ZM77.4551 65.6521C77.4585 65.6537 77.4618 65.6553 77.4668 65.657L77.4551 65.6521ZM72.2601 60.3115C72.2601 60.3131 72.2601 60.3131 72.2601 60.3115Z" fill="black"/>
<path d="M81.4468 61.7029C78.6901 61.7029 76.4468 59.5073 76.4468 56.8093C76.4468 54.1113 78.6901 51.9157 81.4468 51.9157C84.2034 51.9157 86.4468 54.1113 86.4468 56.8093C86.4468 59.5073 84.2051 61.7029 81.4468 61.7029ZM81.4468 53.5469C79.6084 53.5469 78.1134 55.0101 78.1134 56.8093C78.1134 58.6085 79.6084 60.0717 81.4468 60.0717C83.2851 60.0717 84.7801 58.6085 84.7801 56.8093C84.7801 55.0101 83.2851 53.5469 81.4468 53.5469Z" fill="black"/>
</g>
<g clip-path="url(#clip2_65_49)">
<path d="M125.41 71.7547H103.953C101.655 71.7547 99.7866 69.9048 99.7866 67.6328V46.4068C99.7866 44.1349 101.655 42.285 103.953 42.285H125.41C127.708 42.285 129.577 44.1349 129.577 46.4068V67.6311C129.577 69.9048 127.708 71.7547 125.41 71.7547ZM103.953 43.9337C102.575 43.9337 101.453 45.0433 101.453 46.4068V67.6311C101.453 68.9947 102.575 70.1043 103.953 70.1043H125.41C126.788 70.1043 127.91 68.9947 127.91 67.6311V46.4068C127.91 45.0433 126.788 43.9337 125.41 43.9337H103.953Z" fill="black"/>
<path d="M105.592 50.8914C104.517 50.8914 104.52 49.2427 105.592 49.2427H114.682C115.757 49.2427 115.753 50.8914 114.682 50.8914H105.592Z" fill="black"/>
<path d="M110.135 57.8442C109.06 57.8442 109.063 56.1954 110.135 56.1954H119.227C120.302 56.1954 120.298 57.8442 119.227 57.8442H110.135Z" fill="black"/>
<path d="M114.681 64.8019C113.606 64.8019 113.61 63.1531 114.681 63.1531H123.773C124.848 63.1531 124.845 64.8019 123.773 64.8019H114.681Z" fill="black"/>
</g>
<path d="M33.3851 108.57C34.1517 109.337 35.3351 108.154 34.5684 107.404L28.3184 101.137C30.4351 98.7871 31.7184 95.6871 31.7184 92.2871C31.7184 84.9704 25.7684 79.0204 18.4517 79.0204C11.1351 79.0204 5.18506 84.9704 5.18506 92.2871C5.18506 99.6038 11.1351 105.554 18.4517 105.554C21.7517 105.554 24.8017 104.337 27.1351 102.32L33.3851 108.57ZM6.85006 92.2871C6.85006 85.8871 12.0667 80.6871 18.4501 80.6871C24.8501 80.6871 30.0501 85.8871 30.0501 92.2871C30.0501 98.6871 24.8501 103.887 18.4501 103.887C12.0667 103.887 6.85006 98.6871 6.85006 92.2871Z" fill="black"/>
<path d="M64.1129 91.1389L53.7795 78.3346C53.2962 77.7449 52.5962 77.3911 51.8295 77.3911C51.0795 77.3911 50.3795 77.7281 49.8962 78.3177L39.5462 91.1389C38.9295 91.8971 38.5962 92.8406 38.5962 93.8177V106.673C38.5962 108.981 40.4629 110.885 42.7629 110.885H60.8962C63.1962 110.885 65.0629 108.981 65.0629 106.673V93.8177C65.0629 92.8406 64.7295 91.8971 64.1129 91.1389ZM48.4962 109.2V99.9335C48.4962 98.5351 49.6129 97.4063 50.9962 97.4063H52.6629C54.0462 97.4063 55.1629 98.5351 55.1629 99.9335V109.2H48.4962ZM63.3962 106.673C63.3962 108.054 62.2629 109.2 60.8962 109.2H56.8295V99.9335C56.8295 97.6085 54.9629 95.7215 52.6629 95.7215H50.9962C48.6962 95.7215 46.8295 97.6085 46.8295 99.9335V109.2H42.7629C41.3962 109.2 40.2629 108.054 40.2629 106.673V93.8177C40.2629 93.2281 40.4629 92.6552 40.8295 92.2172L51.1962 79.396C51.3462 79.1938 51.5795 79.0759 51.8295 79.0759C52.0962 79.0759 52.3295 79.1938 52.4795 79.396L62.8295 92.2172C63.1962 92.6552 63.3962 93.2281 63.3962 93.8177V106.673Z" fill="black"/>
<defs>
<clipPath id="clip0_65_49">
<rect width="40" height="39.5745" fill="white" transform="translate(66.7803)"/>
</clipPath>
<clipPath id="clip1_65_49">
<rect width="40" height="39.1489" fill="white" transform="translate(66.7803 37.2349)"/>
</clipPath>
<clipPath id="clip2_65_49">
<rect width="40" height="39.5699" fill="white" transform="translate(100.015 37.2349)"/>
</clipPath>
</defs>
</svg>
