<svg width="187" height="45" viewBox="0 0 187 45" fill="none" xmlns="http://www.w3.org/2000/svg">
<path d="M0.5 26.35C1.53333 26.35 2.61667 26.0667 3.75 25.5C4.88333 24.9333 5.91667 24.1167 6.85 23.05C7.81667 21.95 8.6 20.6167 9.2 19.05C9.83333 17.4833 10.15 15.7 10.15 13.7V7H1.2V4.7H10.15V0.549997H21.15V4.7H30.2V7H20.5V13.7C20.5 15.9667 19.9333 18 18.8 19.8C17.7 21.6 16.2167 23.1333 14.35 24.4C12.4833 25.6333 10.35 26.5833 7.95 27.25C5.55 27.8833 3.06667 28.2 0.5 28.2V26.35ZM9.5 33.55H1V31.25H23.2C24.8333 31.25 26.5167 31.15 28.25 30.95C29.9833 30.75 31.4667 30.4 32.7 29.9V1.45H43.75V43.45H32.7V32.2C31.4 32.7 29.8667 33.05 28.1 33.25C26.3333 33.45 24.6 33.55 22.9 33.55H21V43.45H9.5V33.55ZM20.7 23.05C20.7 21.5167 21.1667 20.2833 22.1 19.35C23.0667 18.3833 24.3167 17.9 25.85 17.9C27.3833 17.9 28.6167 18.3833 29.55 19.35C30.4833 20.2833 30.95 21.5167 30.95 23.05C30.95 24.5833 30.4833 25.8333 29.55 26.8C28.6167 27.7333 27.3833 28.2 25.85 28.2C24.3167 28.2 23.0667 27.7333 22.1 26.8C21.1667 25.8333 20.7 24.5833 20.7 23.05ZM48.6668 16.95C50.7001 16.95 52.6335 16.7333 54.4668 16.3C56.3335 15.8333 57.9501 15.1833 59.3168 14.35C60.6835 13.5167 61.7668 12.5167 62.5668 11.35C63.4001 10.1833 63.8168 8.88333 63.8168 7.45V3.8H49.1168V1.5H90.5168V3.8H75.7168V7.45C75.7168 9.91666 74.9668 11.9 73.4668 13.4C72.0001 14.8667 70.0168 16 67.5168 16.8C65.0501 17.6 62.1835 18.1333 58.9168 18.4C55.6501 18.6333 52.2335 18.75 48.6668 18.75V16.95ZM77.5668 13.95C77.5668 12.3167 78.0668 10.9833 79.0668 9.95C80.0668 8.91666 81.4168 8.4 83.1168 8.4C84.7501 8.4 86.0668 8.91666 87.0668 9.95C88.0668 10.9833 88.5668 12.3167 88.5668 13.95C88.5668 15.6167 88.0668 16.9667 87.0668 18C86.0668 19 84.7501 19.5 83.1168 19.5C81.4168 19.5 80.0668 19 79.0668 18C78.0668 16.9667 77.5668 15.6167 77.5668 13.95ZM48.2168 21.85H91.4168V24.15H75.5668V28.7C78.4001 28.8667 80.8168 29.1667 82.8168 29.6C84.8501 30 86.5001 30.5333 87.7668 31.2C89.0335 31.8333 89.9501 32.6 90.5168 33.5C91.1168 34.3667 91.4168 35.3667 91.4168 36.5C91.4168 37.8 91.0168 38.9333 90.2168 39.9C89.4501 40.9 88.2001 41.7333 86.4668 42.4C84.7668 43.0667 82.5335 43.5667 79.7668 43.9C77.0335 44.2333 73.7168 44.4 69.8168 44.4C65.9168 44.4 62.5835 44.2333 59.8168 43.9C57.0835 43.5667 54.8501 43.0667 53.1168 42.4C51.4168 41.7333 50.1668 40.9 49.3668 39.9C48.6001 38.9333 48.2168 37.8 48.2168 36.5C48.2168 35.3667 48.5001 34.3667 49.0668 33.5C49.6668 32.6 50.6001 31.8333 51.8668 31.2C53.1335 30.5333 54.7668 30 56.7668 29.6C58.7668 29.1667 61.2001 28.8667 64.0668 28.7V24.15H48.2168V21.85ZM59.2168 36.5C59.2168 38.4667 60.1168 39.8833 61.9168 40.75C63.7168 41.65 66.3501 42.1 69.8168 42.1C73.2835 42.1 75.9168 41.65 77.7168 40.75C79.5168 39.8833 80.4168 38.4667 80.4168 36.5C80.4168 34.5 79.5168 33.0667 77.7168 32.2C75.9168 31.3 73.2835 30.85 69.8168 30.85C66.3501 30.85 63.7168 31.3 61.9168 32.2C60.1168 33.0667 59.2168 34.5 59.2168 36.5ZM127.134 1.5H138.184V34.95H127.134V1.5ZM94.3836 25.25C95.5503 25.25 96.7003 24.9667 97.8336 24.4C99.0003 23.8333 100.034 23.0167 100.934 21.95C101.867 20.85 102.617 19.5167 103.184 17.95C103.75 16.3833 104.034 14.6 104.034 12.6V3.8H95.0836V1.5H124.634V3.8H114.384V12.6C114.384 14.8667 113.85 16.9 112.784 18.7C111.717 20.4667 110.267 21.9833 108.434 23.25C106.6 24.4833 104.467 25.4333 102.034 26.1C99.6336 26.7667 97.0836 27.1 94.3836 27.1V25.25ZM114.584 21.95C114.584 20.4167 115.05 19.1833 115.984 18.25C116.95 17.2833 118.2 16.8 119.734 16.8C121.267 16.8 122.5 17.2833 123.434 18.25C124.367 19.1833 124.834 20.4167 124.834 21.95C124.834 23.4833 124.367 24.7333 123.434 25.7C122.5 26.6333 121.267 27.1 119.734 27.1C118.2 27.1 116.95 26.6333 115.984 25.7C115.05 24.7333 114.584 23.4833 114.584 21.95ZM107.134 28.95V39.8C107.134 40.2 107.25 40.5333 107.484 40.8C107.75 41.0667 108.1 41.2 108.534 41.2H138.434V43.5H101.634C99.9669 43.5 98.6169 42.9833 97.5836 41.95C96.5836 40.95 96.0836 39.6167 96.0836 37.95V28.95H107.134ZM167.45 1.5V3.8H152.5V20.65C152.5 21.5833 152.967 22.05 153.9 22.05H162.15C164.05 22.05 165.867 21.9 167.6 21.6C169.334 21.2667 170.667 20.8 171.6 20.2V1.5H182.65V11.3H186.55V14.05H182.65V24.35H171.6V22.5C171.1 22.8 170.484 23.0667 169.75 23.3C169.05 23.5333 168.267 23.7333 167.4 23.9C166.567 24.0333 165.667 24.15 164.7 24.25C163.734 24.3167 162.767 24.35 161.8 24.35H147C145.334 24.35 144 23.85 143 22.85C142 21.85 141.5 20.5 141.5 18.8V1.5H167.45ZM182.65 26.65V43.5H147.45C145.784 43.5 144.45 42.9833 143.45 41.95C142.45 40.95 141.95 39.6167 141.95 37.95V26.65H182.65ZM153 39.8C153 40.2 153.117 40.5333 153.35 40.8C153.617 41.0667 153.95 41.2 154.35 41.2H171.6V28.95H153V39.8Z" fill="black"/>
</svg>
